<?xml version="1.0"?><svg width="640" height="480" xmlns="http://www.w3.org/2000/svg">
 <title>New Life Links</title>
 <g>
  <title>Layer 1</title>
  <g id="layer1">
   <path fill="#ffffff" stroke="#000000" stroke-width="10.856777" stroke-linejoin="round" stroke-miterlimit="4" stroke-dashoffset="0" id="path3422" d="m372.210388,28.837654c-39.411957,0 -73.603485,19.047642 -92.729828,47.177734c-17.744904,-11.239388 -39.255081,-18.035072 -62.619263,-18.035011c-60.129959,0 -108.984123,43.795685 -108.984123,97.699677c0,3.961121 0.820129,7.747299 1.332375,11.585358c-51.929901,7.428024 -91.797203,47.393433 -91.797203,96.027618c0,48.18869 39.101292,88.071777 90.331612,96.027588c-1.038048,5.410614 -1.865257,10.926849 -1.865257,16.601746c0,53.904083 48.854118,97.580261 108.984123,97.580261c29.45192,0 56.063202,-10.546326 75.676086,-27.590027c19.987305,21.313293 49.536194,35.234039 83.003815,35.234039c47.751038,0 87.893463,-27.812683 102.588928,-66.168243c11.76236,3.899231 24.303497,6.449615 37.571594,6.449615c60.129944,0 108.850891,-43.795685 108.850891,-97.699707c0,-27.105957 -12.326843,-51.575165 -32.242188,-69.27359c10.054199,-14.787415 16.254333,-31.949142 16.254333,-50.522018c0,-53.904022 -48.854187,-97.580315 -108.984314,-97.580215c-6.329651,0 -12.484222,0.622261 -18.519165,1.552658c-9.709686,-45.003441 -53.8284,-79.067482 -106.852417,-79.067482z"/>
   <path fill="#ffffff" stroke="#000000" stroke-width="4.798749" stroke-linejoin="round" stroke-miterlimit="4" stroke-dashoffset="0" id="path3424" d="m523.704041,523.802124a40.669716,36.458679 0 1 1-81.339417,0a40.669716,36.458679 0 1 181.339417,0z"/>
   <path fill="#ffffff" stroke="#000000" stroke-width="5.402773" stroke-linejoin="round" stroke-miterlimit="4" stroke-dashoffset="0" id="path3426" d="m565.488586,603.347656a28.22835,25.305525 0 1 1-56.456604,0a28.22835,25.305525 0 1 156.456604,0z"/>
  </g>
 </g>
</svg>